<?xml version="1.0" encoding="UTF-8" standalone="no"?>
<!DOCTYPE svg PUBLIC "-//W3C//DTD SVG 1.1//EN"
 "http://www.w3.org/Graphics/SVG/1.1/DTD/svg11.dtd">
<!-- Generated by graphviz version 2.36.0 (20140111.2315)
 -->
<!-- Title: sos_status Pages: 1 -->
<svg width="577pt" height="503pt"
 viewBox="0.00 0.00 577.00 503.00" xmlns="http://www.w3.org/2000/svg" xmlns:xlink="http://www.w3.org/1999/xlink">
<g id="graph0" class="graph" transform="scale(1 1) rotate(0) translate(4 499)">
<title>sos_status</title>
<polygon fill="white" stroke="none" points="-4,4 -4,-499 573,-499 573,4 -4,4"/>
<g id="clust2" class="cluster"><title>cluster_1</title>
<polygon fill="none" stroke="black" stroke-dasharray="1,5" points="8,-8 8,-290 471,-290 471,-8 8,-8"/>
<text text-anchor="middle" x="239.5" y="-274.8" font-family="Times,serif" font-size="14.00">remote</text>
</g>
<g id="clust3" class="cluster"><title>cluster_2</title>
<polygon fill="none" stroke="black" stroke-dasharray="1,5" points="270,-16 270,-179 463,-179 463,-16 270,-16"/>
<text text-anchor="middle" x="366.5" y="-163.8" font-family="Times,serif" font-size="14.00">PBS Job Queue</text>
</g>
<g id="clust1" class="cluster"><title>cluster_0</title>
<polygon fill="none" stroke="black" stroke-dasharray="1,5" points="187,-324 187,-487 561,-487 561,-324 187,-324"/>
<text text-anchor="middle" x="374" y="-471.8" font-family="Times,serif" font-size="14.00">local</text>
</g>
<!-- cmd_status -->
<g id="node1" class="node"><title>cmd_status</title>
<polygon fill="none" stroke="black" points="549,-456 413,-456 413,-420 549,-420 549,-456"/>
<text text-anchor="middle" x="481" y="-434.3" font-family="Times,serif" font-size="14.00" fill="blue">sos status task1 task2</text>
</g>
<!-- task1 -->
<g id="node4" class="node"><title>task1</title>
<ellipse fill="none" stroke="black" cx="445" cy="-350" rx="29.3479" ry="18"/>
<text text-anchor="middle" x="445" y="-346.3" font-family="Times,serif" font-size="14.00">task1</text>
</g>
<!-- cmd_status&#45;&gt;task1 -->
<g id="edge1" class="edge"><title>cmd_status&#45;&gt;task1</title>
<path fill="none" stroke="black" d="M426.04,-419.99C418.485,-415.336 411.714,-409.444 407,-402 400.127,-391.147 407.35,-379.625 417.276,-370.284"/>
<polygon fill="black" stroke="black" points="419.806,-372.729 425.204,-363.613 415.299,-367.373 419.806,-372.729"/>
<text text-anchor="middle" x="438" y="-390.3" font-family="Times,serif" font-size="14.00">query_task</text>
</g>
<!-- task2 -->
<g id="node5" class="node"><title>task2</title>
<ellipse fill="none" stroke="black" cx="523" cy="-350" rx="29.3479" ry="18"/>
<text text-anchor="middle" x="523" y="-346.3" font-family="Times,serif" font-size="14.00">task2</text>
</g>
<!-- cmd_status&#45;&gt;task2 -->
<g id="edge2" class="edge"><title>cmd_status&#45;&gt;task2</title>
<path fill="none" stroke="black" d="M489.499,-419.597C495.537,-407.234 503.741,-390.434 510.52,-376.554"/>
<polygon fill="black" stroke="black" points="513.697,-378.024 514.941,-367.502 507.407,-374.952 513.697,-378.024"/>
<text text-anchor="middle" x="536" y="-390.3" font-family="Times,serif" font-size="14.00">query_task</text>
</g>
<!-- cmd_status_queue -->
<g id="node2" class="node"><title>cmd_status_queue</title>
<polygon fill="none" stroke="black" points="390,-456 202,-456 202,-420 390,-420 390,-456"/>
<text text-anchor="middle" x="296" y="-434.3" font-family="Times,serif" font-size="14.00" fill="blue">sos status task1 task2 &#45;q queue</text>
</g>
<!-- task_engine -->
<g id="node3" class="node"><title>task_engine</title>
<polygon fill="none" stroke="black" points="397.017,-368 236.321,-368 194.983,-332 355.679,-332 397.017,-368"/>
<text text-anchor="middle" x="296" y="-346.3" font-family="Times,serif" font-size="14.00" fill="blue">SoS task engine</text>
</g>
<!-- cmd_status_queue&#45;&gt;task_engine -->
<g id="edge3" class="edge"><title>cmd_status_queue&#45;&gt;task_engine</title>
<path fill="none" stroke="black" d="M296,-419.597C296,-407.746 296,-391.817 296,-378.292"/>
<polygon fill="black" stroke="black" points="299.5,-378.084 296,-368.084 292.5,-378.084 299.5,-378.084"/>
<text text-anchor="middle" x="328.5" y="-390.3" font-family="Times,serif" font-size="14.00">start engine</text>
</g>
<!-- remote_cmd_status -->
<g id="node6" class="node"><title>remote_cmd_status</title>
<polygon fill="none" stroke="black" points="237,-258 101,-258 101,-222 237,-222 237,-258"/>
<text text-anchor="middle" x="169" y="-236.3" font-family="Times,serif" font-size="14.00" fill="blue">sos status task1 task2</text>
</g>
<!-- task_engine&#45;&gt;remote_cmd_status -->
<g id="edge10" class="edge"><title>task_engine&#45;&gt;remote_cmd_status</title>
<path fill="none" stroke="black" d="M275.876,-331.887C254.511,-313.718 220.597,-284.878 196.712,-264.566"/>
<polygon fill="black" stroke="black" points="198.915,-261.845 189.029,-258.033 194.38,-267.177 198.915,-261.845"/>
<text text-anchor="middle" x="261" y="-302.3" font-family="Times,serif" font-size="14.00">ssh</text>
</g>
<!-- remote_job_status1 -->
<g id="node7" class="node"><title>remote_job_status1</title>
<polygon fill="none" stroke="black" points="336.25,-259 255.75,-259 255.75,-221 336.25,-221 336.25,-259"/>
<text text-anchor="middle" x="296" y="-243.8" font-family="Times,serif" font-size="14.00" fill="blue">status_cmd</text>
<text text-anchor="middle" x="296" y="-228.8" font-family="Times,serif" font-size="14.00" fill="blue">(qstat job1)</text>
</g>
<!-- task_engine&#45;&gt;remote_job_status1 -->
<g id="edge11" class="edge"><title>task_engine&#45;&gt;remote_job_status1</title>
<path fill="none" stroke="black" stroke-dasharray="1,5" d="M296,-331.648C296,-314.844 296,-289.076 296,-269.303"/>
<polygon fill="black" stroke="black" points="299.5,-269.029 296,-259.029 292.5,-269.029 299.5,-269.029"/>
<text text-anchor="middle" x="326" y="-302.3" font-family="Times,serif" font-size="14.00">ssh (v &gt; 1)</text>
</g>
<!-- remote_job_status2 -->
<g id="node8" class="node"><title>remote_job_status2</title>
<polygon fill="none" stroke="black" points="435.25,-259 354.75,-259 354.75,-221 435.25,-221 435.25,-259"/>
<text text-anchor="middle" x="395" y="-243.8" font-family="Times,serif" font-size="14.00" fill="blue">status_cmd</text>
<text text-anchor="middle" x="395" y="-228.8" font-family="Times,serif" font-size="14.00" fill="blue">(qstat job2)</text>
</g>
<!-- task_engine&#45;&gt;remote_job_status2 -->
<g id="edge12" class="edge"><title>task_engine&#45;&gt;remote_job_status2</title>
<path fill="none" stroke="black" stroke-dasharray="1,5" d="M336.273,-331.974C344.828,-327.063 353.291,-321.077 360,-314 372.099,-301.237 380.732,-283.511 386.397,-268.723"/>
<polygon fill="black" stroke="black" points="389.784,-269.645 389.851,-259.051 383.192,-267.291 389.784,-269.645"/>
<text text-anchor="middle" x="402" y="-302.3" font-family="Times,serif" font-size="14.00">ssh (v &gt; 1)</text>
</g>
<!-- remote_task1 -->
<g id="node9" class="node"><title>remote_task1</title>
<ellipse fill="none" stroke="black" cx="73" cy="-130" rx="57.2927" ry="18"/>
<text text-anchor="middle" x="73" y="-126.3" font-family="Times,serif" font-size="14.00">remote task1</text>
</g>
<!-- remote_cmd_status&#45;&gt;remote_task1 -->
<g id="edge4" class="edge"><title>remote_cmd_status&#45;&gt;remote_task1</title>
<path fill="none" stroke="black" d="M138.885,-221.851C130.889,-216.452 122.641,-210.039 116,-203 103.297,-189.534 92.6049,-171.683 85.06,-157.125"/>
<polygon fill="black" stroke="black" points="88.1611,-155.501 80.5669,-148.113 81.8965,-158.624 88.1611,-155.501"/>
<text text-anchor="middle" x="147" y="-191.3" font-family="Times,serif" font-size="14.00">query_task</text>
</g>
<!-- remote_task2 -->
<g id="node10" class="node"><title>remote_task2</title>
<ellipse fill="none" stroke="black" cx="205" cy="-130" rx="57.2927" ry="18"/>
<text text-anchor="middle" x="205" y="-126.3" font-family="Times,serif" font-size="14.00">remote task2</text>
</g>
<!-- remote_cmd_status&#45;&gt;remote_task2 -->
<g id="edge5" class="edge"><title>remote_cmd_status&#45;&gt;remote_task2</title>
<path fill="none" stroke="black" d="M174.784,-221.648C180.539,-204.384 189.447,-177.658 196.103,-157.692"/>
<polygon fill="black" stroke="black" points="199.507,-158.547 199.349,-147.953 192.866,-156.333 199.507,-158.547"/>
<text text-anchor="middle" x="217" y="-191.3" font-family="Times,serif" font-size="14.00">query_task</text>
</g>
<!-- job_queue -->
<g id="node11" class="node"><title>job_queue</title>
<ellipse fill="none" stroke="black" cx="358" cy="-130" rx="49.0941" ry="18"/>
<text text-anchor="middle" x="358" y="-126.3" font-family="Times,serif" font-size="14.00">Job Queue</text>
</g>
<!-- remote_job_status1&#45;&gt;job_queue -->
<g id="edge6" class="edge"><title>remote_job_status1&#45;&gt;job_queue</title>
<path fill="none" stroke="black" d="M306.517,-220.679C316.598,-203.119 331.91,-176.447 343.216,-156.753"/>
<polygon fill="black" stroke="black" points="346.306,-158.4 348.25,-147.985 340.236,-154.915 346.306,-158.4"/>
</g>
<!-- remote_job_status2&#45;&gt;job_queue -->
<g id="edge7" class="edge"><title>remote_job_status2&#45;&gt;job_queue</title>
<path fill="none" stroke="black" d="M388.723,-220.679C382.789,-203.357 373.817,-177.17 367.099,-157.559"/>
<polygon fill="black" stroke="black" points="370.371,-156.31 363.819,-147.985 363.749,-158.579 370.371,-156.31"/>
</g>
<!-- remote_job1 -->
<g id="node12" class="node"><title>remote_job1</title>
<ellipse fill="none" stroke="black" cx="305" cy="-42" rx="27" ry="18"/>
<text text-anchor="middle" x="305" y="-38.3" font-family="Times,serif" font-size="14.00">job1</text>
</g>
<!-- job_queue&#45;&gt;remote_job1 -->
<g id="edge8" class="edge"><title>job_queue&#45;&gt;remote_job1</title>
<path fill="none" stroke="black" d="M323.741,-116.839C313.645,-111.471 303.766,-104.039 298,-94 293.759,-86.6171 293.644,-77.6664 295.172,-69.3373"/>
<polygon fill="black" stroke="black" points="298.566,-70.1907 297.682,-59.6329 291.789,-68.4376 298.566,-70.1907"/>
<text text-anchor="middle" x="332" y="-82.3" font-family="Times,serif" font-size="14.00">query status</text>
</g>
<!-- remote_job2 -->
<g id="node13" class="node"><title>remote_job2</title>
<ellipse fill="none" stroke="black" cx="387" cy="-42" rx="27" ry="18"/>
<text text-anchor="middle" x="387" y="-38.3" font-family="Times,serif" font-size="14.00">job2</text>
</g>
<!-- job_queue&#45;&gt;remote_job2 -->
<g id="edge9" class="edge"><title>job_queue&#45;&gt;remote_job2</title>
<path fill="none" stroke="black" d="M363.729,-112.009C367.847,-99.7981 373.476,-83.1047 378.167,-69.1952"/>
<polygon fill="black" stroke="black" points="381.502,-70.2571 381.381,-59.6629 374.869,-68.0203 381.502,-70.2571"/>
<text text-anchor="middle" x="410" y="-82.3" font-family="Times,serif" font-size="14.00">query status</text>
</g>
</g>
</svg>
