<?xml version="1.0" encoding="UTF-8" standalone="no"?>
<!DOCTYPE svg PUBLIC "-//W3C//DTD SVG 1.1//EN"
 "http://www.w3.org/Graphics/SVG/1.1/DTD/svg11.dtd">
<!-- Generated by graphviz version 2.36.0 (20140111.2315)
 -->
<!-- Title: job_queue Pages: 1 -->
<svg width="1295pt" height="816pt"
 viewBox="0.00 0.00 1295.00 816.00" xmlns="http://www.w3.org/2000/svg" xmlns:xlink="http://www.w3.org/1999/xlink">
<g id="graph0" class="graph" transform="scale(1 1) rotate(0) translate(4 812)">
<title>job_queue</title>
<polygon fill="white" stroke="none" points="-4,4 -4,-812 1291,-812 1291,4 -4,4"/>
<g id="clust1" class="cluster"><title>cluster_0</title>
<polygon fill="none" stroke="black" stroke-dasharray="1,5" points="235,-338 235,-800 1279,-800 1279,-338 235,-338"/>
<text text-anchor="middle" x="757" y="-784.8" font-family="Times,serif" font-size="14.00">Local Desktop/Workstation</text>
</g>
<g id="clust5" class="cluster"><title>cluster_4</title>
<polygon fill="none" stroke="black" stroke-dasharray="1,5" points="243,-346 243,-437 568,-437 568,-346 243,-346"/>
</g>
<g id="clust6" class="cluster"><title>cluster_5</title>
<polygon fill="none" stroke="black" stroke-dasharray="1,5" points="406,-354 406,-429 560,-429 560,-354 406,-354"/>
<text text-anchor="middle" x="483" y="-413.8" font-family="Times,serif" font-size="14.00">tasks</text>
</g>
<g id="clust2" class="cluster"><title>cluster_1</title>
<polygon fill="none" stroke="black" stroke-dasharray="1,5" points="576,-354 576,-769 915,-769 915,-354 576,-354"/>
<text text-anchor="middle" x="745.5" y="-753.8" font-family="Times,serif" font-size="14.00">SoS Workflow (sos run)</text>
</g>
<g id="clust3" class="cluster"><title>cluster_2</title>
<polygon fill="none" stroke="black" stroke-dasharray="1,5" points="923,-354 923,-560 1271,-560 1271,-354 923,-354"/>
</g>
<g id="clust4" class="cluster"><title>cluster_3</title>
<polygon fill="none" stroke="black" stroke-dasharray="1,5" points="1109,-477 1109,-552 1263,-552 1263,-477 1109,-477"/>
<text text-anchor="middle" x="1186" y="-536.8" font-family="Times,serif" font-size="14.00">tasks</text>
</g>
<g id="clust7" class="cluster"><title>cluster_6</title>
<polygon fill="none" stroke="black" stroke-dasharray="1,5" points="8,-8 8,-306 582,-306 582,-8 8,-8"/>
<text text-anchor="middle" x="295" y="-290.8" font-family="Times,serif" font-size="14.00">PBS/Moab Cluster</text>
</g>
<g id="clust8" class="cluster"><title>cluster_7</title>
<polygon fill="none" stroke="black" stroke-dasharray="1,5" points="420,-200 420,-275 574,-275 574,-200 420,-200"/>
<text text-anchor="middle" x="497" y="-259.8" font-family="Times,serif" font-size="14.00">remote tasks</text>
</g>
<g id="clust9" class="cluster"><title>cluster_8</title>
<polygon fill="none" stroke="black" stroke-dasharray="1,5" points="143,-16 143,-179 292,-179 292,-16 143,-16"/>
<text text-anchor="middle" x="217.5" y="-163.8" font-family="Times,serif" font-size="14.00">PBS Job Queue</text>
</g>
<!-- step2 -->
<g id="node1" class="node"><title>step2</title>
<ellipse fill="none" stroke="black" cx="660" cy="-626" rx="76.0518" ry="37.4533"/>
<text text-anchor="middle" x="660" y="-637.3" font-family="Times,serif" font-size="14.00">step2</text>
<text text-anchor="middle" x="660" y="-622.3" font-family="Times,serif" font-size="14.00">task1</text>
<text text-anchor="middle" x="660" y="-607.3" font-family="Times,serif" font-size="14.00">queue=localhost</text>
</g>
<!-- step3 -->
<g id="node3" class="node"><title>step3</title>
<ellipse fill="none" stroke="black" cx="647" cy="-503" rx="58.5343" ry="37.4533"/>
<text text-anchor="middle" x="647" y="-514.3" font-family="Times,serif" font-size="14.00">step3</text>
<text text-anchor="middle" x="647" y="-499.3" font-family="Times,serif" font-size="14.00">task3</text>
<text text-anchor="middle" x="647" y="-484.3" font-family="Times,serif" font-size="14.00">queue=PBS</text>
</g>
<!-- step2&#45;&gt;step3 -->
<g id="edge2" class="edge"><title>step2&#45;&gt;step3</title>
<path fill="none" stroke="black" d="M656.064,-588.368C654.792,-576.521 653.363,-563.221 652.022,-550.744"/>
<polygon fill="black" stroke="black" points="655.471,-550.077 650.922,-540.508 648.511,-550.825 655.471,-550.077"/>
</g>
<!-- task_engine1 -->
<g id="node7" class="node"><title>task_engine1</title>
<polygon fill="none" stroke="black" points="1099,-521 931,-521 931,-485 1099,-485 1099,-521"/>
<text text-anchor="middle" x="1015" y="-499.3" font-family="Times,serif" font-size="14.00">SoS Task Engine (process)</text>
</g>
<!-- step2&#45;&gt;task_engine1 -->
<g id="edge7" class="edge"><title>step2&#45;&gt;task_engine1</title>
<path fill="none" stroke="black" d="M713.851,-599.445C724.346,-595.149 735.388,-591.09 746,-588 820.783,-566.222 845.681,-586.288 919,-560 941.633,-551.885 964.978,-538.402 982.979,-526.699"/>
<polygon fill="black" stroke="black" points="984.969,-529.579 991.36,-521.129 981.095,-523.749 984.969,-529.579"/>
</g>
<!-- step4 -->
<g id="node2" class="node"><title>step4</title>
<ellipse fill="none" stroke="black" cx="831" cy="-626" rx="76.0518" ry="37.4533"/>
<text text-anchor="middle" x="831" y="-637.3" font-family="Times,serif" font-size="14.00">step4</text>
<text text-anchor="middle" x="831" y="-622.3" font-family="Times,serif" font-size="14.00">task2</text>
<text text-anchor="middle" x="831" y="-607.3" font-family="Times,serif" font-size="14.00">queue=localhost</text>
</g>
<!-- step5 -->
<g id="node4" class="node"><title>step5</title>
<ellipse fill="none" stroke="black" cx="782" cy="-503" rx="58.5343" ry="37.4533"/>
<text text-anchor="middle" x="782" y="-514.3" font-family="Times,serif" font-size="14.00">step5</text>
<text text-anchor="middle" x="782" y="-499.3" font-family="Times,serif" font-size="14.00">task4</text>
<text text-anchor="middle" x="782" y="-484.3" font-family="Times,serif" font-size="14.00">queue=PBS</text>
</g>
<!-- step4&#45;&gt;step5 -->
<g id="edge5" class="edge"><title>step4&#45;&gt;step5</title>
<path fill="none" stroke="black" d="M816.431,-589.024C811.346,-576.467 805.574,-562.214 800.229,-549.014"/>
<polygon fill="black" stroke="black" points="803.426,-547.584 796.428,-539.629 796.938,-550.212 803.426,-547.584"/>
</g>
<!-- step4&#45;&gt;task_engine1 -->
<g id="edge9" class="edge"><title>step4&#45;&gt;task_engine1</title>
<path fill="none" stroke="black" d="M876.011,-595.4C908.119,-574.286 950.663,-546.308 980.187,-526.894"/>
<polygon fill="black" stroke="black" points="982.473,-529.579 988.905,-521.16 978.627,-523.73 982.473,-529.579"/>
</g>
<!-- step6 -->
<g id="node6" class="node"><title>step6</title>
<ellipse fill="none" stroke="black" cx="714" cy="-380" rx="29.3479" ry="18"/>
<text text-anchor="middle" x="714" y="-376.3" font-family="Times,serif" font-size="14.00">step6</text>
</g>
<!-- step3&#45;&gt;step6 -->
<g id="edge3" class="edge"><title>step3&#45;&gt;step6</title>
<path fill="none" stroke="black" d="M666.2,-467.326C676.966,-447.882 690.159,-424.056 699.956,-406.364"/>
<polygon fill="black" stroke="black" points="703.229,-407.677 705.011,-397.233 697.105,-404.286 703.229,-407.677"/>
</g>
<!-- task_engine2 -->
<g id="node8" class="node"><title>task_engine2</title>
<polygon fill="none" stroke="black" points="396.25,-398 251.75,-398 251.75,-362 396.25,-362 396.25,-398"/>
<text text-anchor="middle" x="324" y="-376.3" font-family="Times,serif" font-size="14.00">SoS Task Engine (pbs)</text>
</g>
<!-- step3&#45;&gt;task_engine2 -->
<g id="edge8" class="edge"><title>step3&#45;&gt;task_engine2</title>
<path fill="none" stroke="black" d="M590.499,-493.043C539.497,-483.573 463.286,-465.927 402,-437 383.979,-428.494 365.781,-415.721 351.5,-404.521"/>
<polygon fill="black" stroke="black" points="353.562,-401.689 343.575,-398.153 349.177,-407.145 353.562,-401.689"/>
</g>
<!-- step5&#45;&gt;step6 -->
<g id="edge6" class="edge"><title>step5&#45;&gt;step6</title>
<path fill="none" stroke="black" d="M762.514,-467.326C751.586,-447.882 738.196,-424.056 728.254,-406.364"/>
<polygon fill="black" stroke="black" points="731.073,-404.236 723.123,-397.233 724.971,-407.666 731.073,-404.236"/>
</g>
<!-- step5&#45;&gt;task_engine2 -->
<g id="edge10" class="edge"><title>step5&#45;&gt;task_engine2</title>
<path fill="none" stroke="black" d="M740.733,-476.103C732.169,-471.727 723.005,-467.725 714,-465 580.746,-424.667 532.49,-485.535 402,-437 382.8,-429.859 364.061,-416.67 349.763,-404.885"/>
<polygon fill="black" stroke="black" points="351.767,-401.994 341.889,-398.165 347.223,-407.319 351.767,-401.994"/>
</g>
<!-- step1 -->
<g id="node5" class="node"><title>step1</title>
<ellipse fill="none" stroke="black" cx="746" cy="-720" rx="29.3479" ry="18"/>
<text text-anchor="middle" x="746" y="-716.3" font-family="Times,serif" font-size="14.00">step1</text>
</g>
<!-- step1&#45;&gt;step2 -->
<g id="edge1" class="edge"><title>step1&#45;&gt;step2</title>
<path fill="none" stroke="black" d="M731.799,-703.808C722.626,-693.996 710.218,-680.722 698.298,-667.969"/>
<polygon fill="black" stroke="black" points="700.749,-665.467 691.364,-660.552 695.636,-670.247 700.749,-665.467"/>
</g>
<!-- step1&#45;&gt;step4 -->
<g id="edge4" class="edge"><title>step1&#45;&gt;step4</title>
<path fill="none" stroke="black" d="M760.036,-703.808C769.102,-693.996 781.366,-680.722 793.148,-667.969"/>
<polygon fill="black" stroke="black" points="795.786,-670.272 800.001,-660.552 790.644,-665.522 795.786,-670.272"/>
</g>
<!-- start1 -->
<g id="node9" class="node"><title>start1</title>
<polygon fill="none" stroke="black" points="1052,-398 938,-398 938,-362 1052,-362 1052,-398"/>
<text text-anchor="middle" x="995" y="-376.3" font-family="Times,serif" font-size="14.00">sos execute task1</text>
</g>
<!-- task_engine1&#45;&gt;start1 -->
<g id="edge11" class="edge"><title>task_engine1&#45;&gt;start1</title>
<path fill="none" stroke="black" d="M1012.18,-484.92C1008.89,-465.035 1003.42,-431.923 999.533,-408.423"/>
<polygon fill="black" stroke="black" points="1002.96,-407.68 997.873,-398.385 996.051,-408.822 1002.96,-407.68"/>
</g>
<!-- start2 -->
<g id="node10" class="node"><title>start2</title>
<polygon fill="none" stroke="black" points="1184,-398 1070,-398 1070,-362 1184,-362 1184,-398"/>
<text text-anchor="middle" x="1127" y="-376.3" font-family="Times,serif" font-size="14.00">sos execute task2</text>
</g>
<!-- task_engine1&#45;&gt;start2 -->
<g id="edge12" class="edge"><title>task_engine1&#45;&gt;start2</title>
<path fill="none" stroke="black" d="M1030.81,-484.92C1049.88,-464.319 1082.09,-429.519 1103.93,-405.921"/>
<polygon fill="black" stroke="black" points="1106.68,-408.101 1110.91,-398.385 1101.55,-403.346 1106.68,-408.101"/>
</g>
<!-- remote_start3 -->
<g id="node17" class="node"><title>remote_start3</title>
<polygon fill="none" stroke="black" points="204,-245 16,-245 16,-207 204,-207 204,-245"/>
<text text-anchor="middle" x="110" y="-229.8" font-family="Times,serif" font-size="14.00">submit_cmd</text>
<text text-anchor="middle" x="110" y="-214.8" font-family="Times,serif" font-size="14.00">(wrapper of sos execute task3)</text>
</g>
<!-- task_engine2&#45;&gt;remote_start3 -->
<g id="edge19" class="edge"><title>task_engine2&#45;&gt;remote_start3</title>
<path fill="none" stroke="black" d="M296.715,-361.838C274.017,-347.375 241.01,-325.913 213,-306 188.139,-288.326 160.774,-267.257 140.503,-251.324"/>
<polygon fill="black" stroke="black" points="142.572,-248.499 132.553,-245.053 138.237,-253.995 142.572,-248.499"/>
<text text-anchor="middle" x="256" y="-318.3" font-family="Times,serif" font-size="14.00">ssh</text>
</g>
<!-- remote_start4 -->
<g id="node18" class="node"><title>remote_start4</title>
<polygon fill="none" stroke="black" points="410,-245 222,-245 222,-207 410,-207 410,-245"/>
<text text-anchor="middle" x="316" y="-229.8" font-family="Times,serif" font-size="14.00">submit_cmd</text>
<text text-anchor="middle" x="316" y="-214.8" font-family="Times,serif" font-size="14.00">(wrapper of sos execute task4)</text>
</g>
<!-- task_engine2&#45;&gt;remote_start4 -->
<g id="edge20" class="edge"><title>task_engine2&#45;&gt;remote_start4</title>
<path fill="none" stroke="black" d="M323.098,-361.859C321.738,-336.023 319.148,-286.804 317.501,-255.511"/>
<polygon fill="black" stroke="black" points="320.982,-255.059 316.961,-245.257 313.991,-255.427 320.982,-255.059"/>
<text text-anchor="middle" x="331" y="-318.3" font-family="Times,serif" font-size="14.00">ssh</text>
</g>
<!-- task1 -->
<g id="node11" class="node"><title>task1</title>
<ellipse fill="none" stroke="black" cx="1225" cy="-503" rx="29.3479" ry="18"/>
<text text-anchor="middle" x="1225" y="-499.3" font-family="Times,serif" font-size="14.00">task1</text>
</g>
<!-- task2 -->
<g id="node12" class="node"><title>task2</title>
<ellipse fill="none" stroke="black" cx="1147" cy="-503" rx="29.3479" ry="18"/>
<text text-anchor="middle" x="1147" y="-499.3" font-family="Times,serif" font-size="14.00">task2</text>
</g>
<!-- task3 -->
<g id="node13" class="node"><title>task3</title>
<ellipse fill="none" stroke="black" cx="444" cy="-380" rx="29.3479" ry="18"/>
<text text-anchor="middle" x="444" y="-376.3" font-family="Times,serif" font-size="14.00">task3</text>
</g>
<!-- remote_task3 -->
<g id="node15" class="node"><title>remote_task3</title>
<ellipse fill="none" stroke="black" cx="458" cy="-226" rx="29.3479" ry="18"/>
<text text-anchor="middle" x="458" y="-222.3" font-family="Times,serif" font-size="14.00">task3</text>
</g>
<!-- task3&#45;&gt;remote_task3 -->
<g id="edge17" class="edge"><title>task3&#45;&gt;remote_task3</title>
<path fill="none" stroke="black" stroke-dasharray="1,5" d="M445.579,-361.859C447.984,-335.745 452.589,-285.743 455.466,-254.507"/>
<polygon fill="black" stroke="black" points="458.974,-254.59 456.406,-244.311 452.003,-253.948 458.974,-254.59"/>
<text text-anchor="middle" x="459.5" y="-318.3" font-family="Times,serif" font-size="14.00">scp</text>
</g>
<!-- task4 -->
<g id="node14" class="node"><title>task4</title>
<ellipse fill="none" stroke="black" cx="522" cy="-380" rx="29.3479" ry="18"/>
<text text-anchor="middle" x="522" y="-376.3" font-family="Times,serif" font-size="14.00">task4</text>
</g>
<!-- remote_task4 -->
<g id="node16" class="node"><title>remote_task4</title>
<ellipse fill="none" stroke="black" cx="536" cy="-226" rx="29.3479" ry="18"/>
<text text-anchor="middle" x="536" y="-222.3" font-family="Times,serif" font-size="14.00">task4</text>
</g>
<!-- task4&#45;&gt;remote_task4 -->
<g id="edge18" class="edge"><title>task4&#45;&gt;remote_task4</title>
<path fill="none" stroke="black" stroke-dasharray="1,5" d="M523.579,-361.859C525.984,-335.745 530.589,-285.743 533.466,-254.507"/>
<polygon fill="black" stroke="black" points="536.974,-254.59 534.406,-244.311 530.003,-253.948 536.974,-254.59"/>
<text text-anchor="middle" x="537.5" y="-318.3" font-family="Times,serif" font-size="14.00">scp</text>
</g>
<!-- job_queue -->
<g id="node19" class="node"><title>job_queue</title>
<polygon fill="none" stroke="black" points="251,-148 175,-148 175,-112 251,-112 251,-148"/>
<text text-anchor="middle" x="213" y="-126.3" font-family="Times,serif" font-size="14.00">Job Queue</text>
</g>
<!-- remote_start3&#45;&gt;job_queue -->
<g id="edge15" class="edge"><title>remote_start3&#45;&gt;job_queue</title>
<path fill="none" stroke="black" d="M129.859,-206.876C145.98,-192.164 168.854,-171.288 186.53,-155.157"/>
<polygon fill="black" stroke="black" points="189.216,-157.444 194.243,-148.118 184.497,-152.274 189.216,-157.444"/>
</g>
<!-- remote_start4&#45;&gt;job_queue -->
<g id="edge16" class="edge"><title>remote_start4&#45;&gt;job_queue</title>
<path fill="none" stroke="black" d="M296.141,-206.876C280.02,-192.164 257.146,-171.288 239.47,-155.157"/>
<polygon fill="black" stroke="black" points="241.503,-152.274 231.757,-148.118 236.784,-157.444 241.503,-152.274"/>
</g>
<!-- remote_job3 -->
<g id="node20" class="node"><title>remote_job3</title>
<ellipse fill="none" stroke="black" cx="178" cy="-42" rx="27" ry="18"/>
<text text-anchor="middle" x="178" y="-38.3" font-family="Times,serif" font-size="14.00">job3</text>
</g>
<!-- job_queue&#45;&gt;remote_job3 -->
<g id="edge13" class="edge"><title>job_queue&#45;&gt;remote_job3</title>
<path fill="none" stroke="black" d="M184.662,-111.979C178.746,-106.98 173.306,-100.955 170,-94 166.428,-86.4876 166.498,-77.7189 168.038,-69.5922"/>
<polygon fill="black" stroke="black" points="171.459,-70.3458 170.612,-59.7848 164.688,-68.5688 171.459,-70.3458"/>
<text text-anchor="middle" x="193" y="-82.3" font-family="Times,serif" font-size="14.00">start job</text>
</g>
<!-- remote_job4 -->
<g id="node21" class="node"><title>remote_job4</title>
<ellipse fill="none" stroke="black" cx="250" cy="-42" rx="27" ry="18"/>
<text text-anchor="middle" x="250" y="-38.3" font-family="Times,serif" font-size="14.00">job4</text>
</g>
<!-- job_queue&#45;&gt;remote_job4 -->
<g id="edge14" class="edge"><title>job_queue&#45;&gt;remote_job4</title>
<path fill="none" stroke="black" d="M220.488,-111.597C225.755,-99.3532 232.895,-82.7569 238.833,-68.9555"/>
<polygon fill="black" stroke="black" points="242.163,-70.0713 242.9,-59.5021 235.733,-67.3048 242.163,-70.0713"/>
<text text-anchor="middle" x="258" y="-82.3" font-family="Times,serif" font-size="14.00">start job</text>
</g>
</g>
</svg>
