<?xml version="1.0" encoding="UTF-8" standalone="no"?>
<!DOCTYPE svg PUBLIC "-//W3C//DTD SVG 1.1//EN"
 "http://www.w3.org/Graphics/SVG/1.1/DTD/svg11.dtd">
<!-- Generated by graphviz version 2.36.0 (20140111.2315)
 -->
<!-- Title: job_queue Pages: 1 -->
<svg width="1161pt" height="815pt"
 viewBox="0.00 0.00 1161.00 815.00" xmlns="http://www.w3.org/2000/svg" xmlns:xlink="http://www.w3.org/1999/xlink">
<g id="graph0" class="graph" transform="scale(1 1) rotate(0) translate(4 811)">
<title>job_queue</title>
<polygon fill="white" stroke="none" points="-4,4 -4,-811 1157,-811 1157,4 -4,4"/>
<g id="clust1" class="cluster"><title>cluster_0</title>
<polygon fill="none" stroke="black" stroke-dasharray="1,5" points="101,-337 101,-799 1145,-799 1145,-337 101,-337"/>
<text text-anchor="middle" x="623" y="-783.8" font-family="Times,serif" font-size="14.00">Local Desktop/Workstation</text>
</g>
<g id="clust3" class="cluster"><title>cluster_2</title>
<polygon fill="none" stroke="black" stroke-dasharray="1,5" points="789,-353 789,-559 1137,-559 1137,-353 789,-353"/>
</g>
<g id="clust4" class="cluster"><title>cluster_3</title>
<polygon fill="none" stroke="black" stroke-dasharray="1,5" points="975,-476 975,-551 1129,-551 1129,-476 975,-476"/>
<text text-anchor="middle" x="1052" y="-535.8" font-family="Times,serif" font-size="14.00">tasks</text>
</g>
<g id="clust5" class="cluster"><title>cluster_4</title>
<polygon fill="none" stroke="black" stroke-dasharray="1,5" points="109,-345 109,-436 434,-436 434,-345 109,-345"/>
</g>
<g id="clust6" class="cluster"><title>cluster_5</title>
<polygon fill="none" stroke="black" stroke-dasharray="1,5" points="272,-353 272,-428 426,-428 426,-353 272,-353"/>
<text text-anchor="middle" x="349" y="-412.8" font-family="Times,serif" font-size="14.00">tasks</text>
</g>
<g id="clust2" class="cluster"><title>cluster_1</title>
<polygon fill="none" stroke="black" stroke-dasharray="1,5" points="442,-353 442,-768 781,-768 781,-353 442,-353"/>
<text text-anchor="middle" x="611.5" y="-752.8" font-family="Times,serif" font-size="14.00">SoS Workflow (sos run)</text>
</g>
<g id="clust7" class="cluster"><title>cluster_6</title>
<polygon fill="none" stroke="black" stroke-dasharray="1,5" points="8,-8 8,-305 434,-305 434,-8 8,-8"/>
<text text-anchor="middle" x="221" y="-289.8" font-family="Times,serif" font-size="14.00">PBS/Moab Cluster</text>
</g>
<g id="clust9" class="cluster"><title>cluster_8</title>
<polygon fill="none" stroke="black" stroke-dasharray="1,5" points="50,-16 50,-179 199,-179 199,-16 50,-16"/>
<text text-anchor="middle" x="124.5" y="-163.8" font-family="Times,serif" font-size="14.00">PBS Job Queue</text>
</g>
<g id="clust8" class="cluster"><title>cluster_7</title>
<polygon fill="none" stroke="black" stroke-dasharray="1,5" points="272,-199 272,-274 426,-274 426,-199 272,-199"/>
<text text-anchor="middle" x="349" y="-258.8" font-family="Times,serif" font-size="14.00">remote tasks</text>
</g>
<!-- step2 -->
<g id="node1" class="node"><title>step2</title>
<ellipse fill="none" stroke="black" cx="526" cy="-625" rx="76.0518" ry="37.4533"/>
<text text-anchor="middle" x="526" y="-636.3" font-family="Times,serif" font-size="14.00">step2</text>
<text text-anchor="middle" x="526" y="-621.3" font-family="Times,serif" font-size="14.00">task1</text>
<text text-anchor="middle" x="526" y="-606.3" font-family="Times,serif" font-size="14.00">queue=localhost</text>
</g>
<!-- step3 -->
<g id="node3" class="node"><title>step3</title>
<ellipse fill="none" stroke="black" cx="513" cy="-502" rx="58.5343" ry="37.4533"/>
<text text-anchor="middle" x="513" y="-513.3" font-family="Times,serif" font-size="14.00">step3</text>
<text text-anchor="middle" x="513" y="-498.3" font-family="Times,serif" font-size="14.00">task3</text>
<text text-anchor="middle" x="513" y="-483.3" font-family="Times,serif" font-size="14.00">queue=PBS</text>
</g>
<!-- step2&#45;&gt;step3 -->
<g id="edge2" class="edge"><title>step2&#45;&gt;step3</title>
<path fill="none" stroke="black" d="M522.064,-587.368C520.792,-575.521 519.363,-562.221 518.022,-549.744"/>
<polygon fill="black" stroke="black" points="521.471,-549.077 516.922,-539.508 514.511,-549.825 521.471,-549.077"/>
</g>
<!-- task_engine1 -->
<g id="node7" class="node"><title>task_engine1</title>
<polygon fill="none" stroke="black" points="965,-520 797,-520 797,-484 965,-484 965,-520"/>
<text text-anchor="middle" x="881" y="-498.3" font-family="Times,serif" font-size="14.00">SoS Task Engine (process)</text>
</g>
<!-- step2&#45;&gt;task_engine1 -->
<g id="edge7" class="edge"><title>step2&#45;&gt;task_engine1</title>
<path fill="none" stroke="black" d="M579.851,-598.445C590.346,-594.149 601.388,-590.09 612,-587 686.783,-565.222 711.681,-585.288 785,-559 807.633,-550.885 830.978,-537.402 848.979,-525.699"/>
<polygon fill="black" stroke="black" points="850.969,-528.579 857.36,-520.129 847.095,-522.749 850.969,-528.579"/>
</g>
<!-- step4 -->
<g id="node2" class="node"><title>step4</title>
<ellipse fill="none" stroke="black" cx="697" cy="-625" rx="76.0518" ry="37.4533"/>
<text text-anchor="middle" x="697" y="-636.3" font-family="Times,serif" font-size="14.00">step4</text>
<text text-anchor="middle" x="697" y="-621.3" font-family="Times,serif" font-size="14.00">task2</text>
<text text-anchor="middle" x="697" y="-606.3" font-family="Times,serif" font-size="14.00">queue=localhost</text>
</g>
<!-- step5 -->
<g id="node4" class="node"><title>step5</title>
<ellipse fill="none" stroke="black" cx="648" cy="-502" rx="58.5343" ry="37.4533"/>
<text text-anchor="middle" x="648" y="-513.3" font-family="Times,serif" font-size="14.00">step5</text>
<text text-anchor="middle" x="648" y="-498.3" font-family="Times,serif" font-size="14.00">task4</text>
<text text-anchor="middle" x="648" y="-483.3" font-family="Times,serif" font-size="14.00">queue=PBS</text>
</g>
<!-- step4&#45;&gt;step5 -->
<g id="edge5" class="edge"><title>step4&#45;&gt;step5</title>
<path fill="none" stroke="black" d="M682.431,-588.024C677.346,-575.467 671.574,-561.214 666.229,-548.014"/>
<polygon fill="black" stroke="black" points="669.426,-546.584 662.428,-538.629 662.938,-549.212 669.426,-546.584"/>
</g>
<!-- step4&#45;&gt;task_engine1 -->
<g id="edge9" class="edge"><title>step4&#45;&gt;task_engine1</title>
<path fill="none" stroke="black" d="M742.011,-594.4C774.119,-573.286 816.663,-545.308 846.187,-525.894"/>
<polygon fill="black" stroke="black" points="848.473,-528.579 854.905,-520.16 844.627,-522.73 848.473,-528.579"/>
</g>
<!-- step6 -->
<g id="node6" class="node"><title>step6</title>
<ellipse fill="none" stroke="black" cx="580" cy="-379" rx="29.3479" ry="18"/>
<text text-anchor="middle" x="580" y="-375.3" font-family="Times,serif" font-size="14.00">step6</text>
</g>
<!-- step3&#45;&gt;step6 -->
<g id="edge3" class="edge"><title>step3&#45;&gt;step6</title>
<path fill="none" stroke="black" d="M532.2,-466.326C542.966,-446.882 556.159,-423.056 565.956,-405.364"/>
<polygon fill="black" stroke="black" points="569.229,-406.677 571.011,-396.233 563.105,-403.286 569.229,-406.677"/>
</g>
<!-- task_engine2 -->
<g id="node8" class="node"><title>task_engine2</title>
<polygon fill="none" stroke="black" points="262.25,-397 117.75,-397 117.75,-361 262.25,-361 262.25,-397"/>
<text text-anchor="middle" x="190" y="-375.3" font-family="Times,serif" font-size="14.00">SoS Task Engine (pbs)</text>
</g>
<!-- step3&#45;&gt;task_engine2 -->
<g id="edge8" class="edge"><title>step3&#45;&gt;task_engine2</title>
<path fill="none" stroke="black" d="M456.499,-492.043C405.497,-482.573 329.286,-464.927 268,-436 249.979,-427.494 231.781,-414.721 217.5,-403.521"/>
<polygon fill="black" stroke="black" points="219.562,-400.689 209.575,-397.153 215.177,-406.145 219.562,-400.689"/>
</g>
<!-- step5&#45;&gt;step6 -->
<g id="edge6" class="edge"><title>step5&#45;&gt;step6</title>
<path fill="none" stroke="black" d="M628.514,-466.326C617.586,-446.882 604.196,-423.056 594.254,-405.364"/>
<polygon fill="black" stroke="black" points="597.073,-403.236 589.123,-396.233 590.971,-406.666 597.073,-403.236"/>
</g>
<!-- step5&#45;&gt;task_engine2 -->
<g id="edge10" class="edge"><title>step5&#45;&gt;task_engine2</title>
<path fill="none" stroke="black" d="M606.733,-475.103C598.169,-470.727 589.005,-466.725 580,-464 446.746,-423.667 398.49,-484.535 268,-436 248.8,-428.859 230.061,-415.67 215.763,-403.885"/>
<polygon fill="black" stroke="black" points="217.767,-400.994 207.889,-397.165 213.223,-406.319 217.767,-400.994"/>
</g>
<!-- step1 -->
<g id="node5" class="node"><title>step1</title>
<ellipse fill="none" stroke="black" cx="612" cy="-719" rx="29.3479" ry="18"/>
<text text-anchor="middle" x="612" y="-715.3" font-family="Times,serif" font-size="14.00">step1</text>
</g>
<!-- step1&#45;&gt;step2 -->
<g id="edge1" class="edge"><title>step1&#45;&gt;step2</title>
<path fill="none" stroke="black" d="M597.799,-702.808C588.626,-692.996 576.218,-679.722 564.298,-666.969"/>
<polygon fill="black" stroke="black" points="566.749,-664.467 557.364,-659.552 561.636,-669.247 566.749,-664.467"/>
</g>
<!-- step1&#45;&gt;step4 -->
<g id="edge4" class="edge"><title>step1&#45;&gt;step4</title>
<path fill="none" stroke="black" d="M626.036,-702.808C635.102,-692.996 647.366,-679.722 659.148,-666.969"/>
<polygon fill="black" stroke="black" points="661.786,-669.272 666.001,-659.552 656.644,-664.522 661.786,-669.272"/>
</g>
<!-- start1 -->
<g id="node9" class="node"><title>start1</title>
<polygon fill="none" stroke="black" points="918,-397 804,-397 804,-361 918,-361 918,-397"/>
<text text-anchor="middle" x="861" y="-375.3" font-family="Times,serif" font-size="14.00">sos execute task1</text>
</g>
<!-- task_engine1&#45;&gt;start1 -->
<g id="edge11" class="edge"><title>task_engine1&#45;&gt;start1</title>
<path fill="none" stroke="black" d="M878.177,-483.92C874.89,-464.035 869.417,-430.923 865.533,-407.423"/>
<polygon fill="black" stroke="black" points="868.957,-406.68 863.873,-397.385 862.051,-407.822 868.957,-406.68"/>
</g>
<!-- start2 -->
<g id="node10" class="node"><title>start2</title>
<polygon fill="none" stroke="black" points="1050,-397 936,-397 936,-361 1050,-361 1050,-397"/>
<text text-anchor="middle" x="993" y="-375.3" font-family="Times,serif" font-size="14.00">sos execute task2</text>
</g>
<!-- task_engine1&#45;&gt;start2 -->
<g id="edge12" class="edge"><title>task_engine1&#45;&gt;start2</title>
<path fill="none" stroke="black" d="M896.809,-483.92C915.879,-463.319 948.09,-428.519 969.932,-404.921"/>
<polygon fill="black" stroke="black" points="972.684,-407.101 976.908,-397.385 967.547,-402.346 972.684,-407.101"/>
</g>
<!-- remote_start3 -->
<g id="node17" class="node"><title>remote_start3</title>
<polygon fill="none" stroke="black" points="130,-243 16,-243 16,-207 130,-207 130,-243"/>
<text text-anchor="middle" x="73" y="-221.3" font-family="Times,serif" font-size="14.00">sos execute task3</text>
</g>
<!-- task_engine2&#45;&gt;remote_start3 -->
<g id="edge19" class="edge"><title>task_engine2&#45;&gt;remote_start3</title>
<path fill="none" stroke="black" d="M176.806,-360.859C156.266,-334.175 116.527,-282.548 92.6195,-251.489"/>
<polygon fill="black" stroke="black" points="95.1984,-249.101 86.3252,-243.311 89.6514,-253.371 95.1984,-249.101"/>
<text text-anchor="middle" x="162" y="-317.3" font-family="Times,serif" font-size="14.00">ssh</text>
</g>
<!-- remote_start4 -->
<g id="node18" class="node"><title>remote_start4</title>
<polygon fill="none" stroke="black" points="262,-243 148,-243 148,-207 262,-207 262,-243"/>
<text text-anchor="middle" x="205" y="-221.3" font-family="Times,serif" font-size="14.00">sos execute task4</text>
</g>
<!-- task_engine2&#45;&gt;remote_start4 -->
<g id="edge20" class="edge"><title>task_engine2&#45;&gt;remote_start4</title>
<path fill="none" stroke="black" d="M191.692,-360.859C194.269,-334.745 199.203,-284.743 202.285,-253.507"/>
<polygon fill="black" stroke="black" points="205.793,-253.607 203.292,-243.311 198.826,-252.919 205.793,-253.607"/>
<text text-anchor="middle" x="206" y="-317.3" font-family="Times,serif" font-size="14.00">ssh</text>
</g>
<!-- task1 -->
<g id="node11" class="node"><title>task1</title>
<ellipse fill="none" stroke="black" cx="1091" cy="-502" rx="29.3479" ry="18"/>
<text text-anchor="middle" x="1091" y="-498.3" font-family="Times,serif" font-size="14.00">task1</text>
</g>
<!-- task2 -->
<g id="node12" class="node"><title>task2</title>
<ellipse fill="none" stroke="black" cx="1013" cy="-502" rx="29.3479" ry="18"/>
<text text-anchor="middle" x="1013" y="-498.3" font-family="Times,serif" font-size="14.00">task2</text>
</g>
<!-- task3 -->
<g id="node13" class="node"><title>task3</title>
<ellipse fill="none" stroke="black" cx="310" cy="-379" rx="29.3479" ry="18"/>
<text text-anchor="middle" x="310" y="-375.3" font-family="Times,serif" font-size="14.00">task3</text>
</g>
<!-- remote_task3 -->
<g id="node15" class="node"><title>remote_task3</title>
<ellipse fill="none" stroke="black" cx="310" cy="-225" rx="29.3479" ry="18"/>
<text text-anchor="middle" x="310" y="-221.3" font-family="Times,serif" font-size="14.00">task3</text>
</g>
<!-- task3&#45;&gt;remote_task3 -->
<g id="edge17" class="edge"><title>task3&#45;&gt;remote_task3</title>
<path fill="none" stroke="black" stroke-dasharray="1,5" d="M310,-360.859C310,-334.745 310,-284.743 310,-253.507"/>
<polygon fill="black" stroke="black" points="313.5,-253.311 310,-243.311 306.5,-253.311 313.5,-253.311"/>
<text text-anchor="middle" x="319.5" y="-317.3" font-family="Times,serif" font-size="14.00">scp</text>
</g>
<!-- task4 -->
<g id="node14" class="node"><title>task4</title>
<ellipse fill="none" stroke="black" cx="388" cy="-379" rx="29.3479" ry="18"/>
<text text-anchor="middle" x="388" y="-375.3" font-family="Times,serif" font-size="14.00">task4</text>
</g>
<!-- remote_task4 -->
<g id="node16" class="node"><title>remote_task4</title>
<ellipse fill="none" stroke="black" cx="388" cy="-225" rx="29.3479" ry="18"/>
<text text-anchor="middle" x="388" y="-221.3" font-family="Times,serif" font-size="14.00">task4</text>
</g>
<!-- task4&#45;&gt;remote_task4 -->
<g id="edge18" class="edge"><title>task4&#45;&gt;remote_task4</title>
<path fill="none" stroke="black" stroke-dasharray="1,5" d="M388,-360.859C388,-334.745 388,-284.743 388,-253.507"/>
<polygon fill="black" stroke="black" points="391.5,-253.311 388,-243.311 384.5,-253.311 391.5,-253.311"/>
<text text-anchor="middle" x="397.5" y="-317.3" font-family="Times,serif" font-size="14.00">scp</text>
</g>
<!-- job_queue -->
<g id="node19" class="node"><title>job_queue</title>
<ellipse fill="none" stroke="black" cx="124" cy="-130" rx="49.0941" ry="18"/>
<text text-anchor="middle" x="124" y="-126.3" font-family="Times,serif" font-size="14.00">Job Queue</text>
</g>
<!-- remote_start3&#45;&gt;job_queue -->
<g id="edge15" class="edge"><title>remote_start3&#45;&gt;job_queue</title>
<path fill="none" stroke="black" d="M82.3542,-206.942C90.0465,-192.915 101.069,-172.816 109.842,-156.818"/>
<polygon fill="black" stroke="black" points="112.966,-158.401 114.705,-147.949 106.828,-155.035 112.966,-158.401"/>
</g>
<!-- remote_start4&#45;&gt;job_queue -->
<g id="edge16" class="edge"><title>remote_start4&#45;&gt;job_queue</title>
<path fill="none" stroke="black" d="M190.143,-206.942C177.427,-192.342 158.98,-171.162 144.796,-154.877"/>
<polygon fill="black" stroke="black" points="147.426,-152.568 138.219,-147.326 142.148,-157.165 147.426,-152.568"/>
</g>
<!-- remote_job3 -->
<g id="node20" class="node"><title>remote_job3</title>
<ellipse fill="none" stroke="black" cx="85" cy="-42" rx="27" ry="18"/>
<text text-anchor="middle" x="85" y="-38.3" font-family="Times,serif" font-size="14.00">job3</text>
</g>
<!-- job_queue&#45;&gt;remote_job3 -->
<g id="edge13" class="edge"><title>job_queue&#45;&gt;remote_job3</title>
<path fill="none" stroke="black" d="M103.093,-113.643C97.1686,-108.149 91.4092,-101.451 88,-94 84.7018,-86.7916 83.3409,-78.4003 82.9665,-70.5306"/>
<polygon fill="black" stroke="black" points="86.4667,-70.2866 82.9783,-60.2825 79.4667,-70.2785 86.4667,-70.2866"/>
<text text-anchor="middle" x="111" y="-82.3" font-family="Times,serif" font-size="14.00">start job</text>
</g>
<!-- remote_job4 -->
<g id="node21" class="node"><title>remote_job4</title>
<ellipse fill="none" stroke="black" cx="157" cy="-42" rx="27" ry="18"/>
<text text-anchor="middle" x="157" y="-38.3" font-family="Times,serif" font-size="14.00">job4</text>
</g>
<!-- job_queue&#45;&gt;remote_job4 -->
<g id="edge14" class="edge"><title>job_queue&#45;&gt;remote_job4</title>
<path fill="none" stroke="black" d="M130.52,-112.009C135.205,-99.7981 141.611,-83.1047 146.948,-69.1952"/>
<polygon fill="black" stroke="black" points="150.291,-70.2531 150.606,-59.6629 143.756,-67.7453 150.291,-70.2531"/>
<text text-anchor="middle" x="167" y="-82.3" font-family="Times,serif" font-size="14.00">start job</text>
</g>
</g>
</svg>
